# xmcd
#
# Track frame offsets:
#	183
#	16458
#	34523
#	48813
#	60000
#	75158
#	94470
#	108158
#	125135
#	135060
#	151563
#	162955
#	175838
#	194518
#	205820
#	219168
#
# Disc length: 3066 seconds
#
# Revision: 4
# Processed by: cddbd v1.5.2PL0 Copyright (c) Steve Scherf et al.
# Submitted via: EasyCDDAExtractor 8.2.1.1
#
DISCID=b80bf810
DTITLE=Nina Simone - My Baby Just Cares For Me
DYEAR=2001
DGENRE=Blues
TTITLE0=My Baby Just Cares For Me
TTITLE1=Mood Indigo
TTITLE2=Don't Smoke In Bed
TTITLE3=He Needs Me
TTITLE4=Love Me Or Leave Me
TTITLE5=Little Girl Blue
TTITLE6=I Like The Sunrise
TTITLE7=Solitude
TTITLE8=The Gal From Joe's
TTITLE9=Satin Doll
TTITLE10=It Don't Mean A Thing
TTITLE11=Do Nothin' Till You Hear From Me
TTITLE12=I Got It Bad And That Ain't Good
TTITLE13=Hey, Buddy Bolden
TTITLE14=Something To Live For
TTITLE15=You Better Know It
EXTD=YEAR: 2001  ID3G:  17
EXTT0=
EXTT1=
EXTT2=
EXTT3=
EXTT4=
EXTT5=
EXTT6=
EXTT7=
EXTT8=
EXTT9=
EXTT10=
EXTT11=
EXTT12=
EXTT13=
EXTT14=
EXTT15=
PLAYORDER=
